<svg width="64" height="65" viewBox="0 0 64 65" fill="none" xmlns="http://www.w3.org/2000/svg">
<path opacity="0.3" d="M64 32.5C64 50.1731 49.6731 64.5 32 64.5C14.3269 64.5 0 50.1731 0 32.5C0 14.8269 14.3269 0.5 32 0.5C49.6731 0.5 64 14.8269 64 32.5ZM8.72571 32.5C8.72571 45.354 19.146 55.7743 32 55.7743C44.854 55.7743 55.2743 45.354 55.2743 32.5C55.2743 19.646 44.854 9.22571 32 9.22571C19.146 9.22571 8.72571 19.646 8.72571 32.5Z" fill="#2F2E30"/>
<circle cx="32" cy="32.5" r="23.2" fill="#526458"/>
<g clip-path="url(#clip0_54_1451)">
<path d="M26.6667 36.4999C26.6667 35.0272 25.4728 33.8333 24 33.8333C22.5273 33.8333 21.3334 35.0272 21.3334 36.4999V39.1666C21.3334 40.6393 22.5273 41.8333 24 41.8333C25.4728 41.8333 26.6667 40.6393 26.6667 39.1666V36.4999Z" stroke="#F4F4F4" stroke-width="2" stroke-linecap="round" stroke-linejoin="round"/>
<path d="M42.6667 36.4999C42.6667 35.0272 41.4728 33.8333 40 33.8333C38.5273 33.8333 37.3334 35.0272 37.3334 36.4999V39.1666C37.3334 40.6393 38.5273 41.8333 40 41.8333C41.4728 41.8333 42.6667 40.6393 42.6667 39.1666V36.4999Z" stroke="#F4F4F4" stroke-width="2" stroke-linecap="round" stroke-linejoin="round"/>
<path d="M21.3334 36.4999V32.4999C21.3334 29.6709 22.4572 26.9578 24.4576 24.9574C26.458 22.9571 29.1711 21.8333 32 21.8333C34.829 21.8333 37.5421 22.9571 39.5425 24.9574C41.5429 26.9578 42.6667 29.6709 42.6667 32.4999V36.4999" stroke="#F4F4F4" stroke-width="2" stroke-linecap="round" stroke-linejoin="round"/>
<path d="M40 41.8333C40 42.8941 39.1571 43.9115 37.6569 44.6617C36.1566 45.4118 34.1217 45.8333 32 45.8333" stroke="#F4F4F4" stroke-width="2" stroke-linecap="round" stroke-linejoin="round"/>
</g>
<defs>
<clipPath id="clip0_54_1451">
<rect width="32" height="32" fill="white" transform="translate(16 16.5)"/>
</clipPath>
</defs>
</svg>
