<svg width="24" height="25" viewBox="0 0 24 25" fill="none" xmlns="http://www.w3.org/2000/svg">
<path d="M3.75 6.50004H2.25C2.05109 6.50004 1.86032 6.42102 1.71967 6.28036C1.57902 6.13971 1.5 5.94895 1.5 5.75004C1.5 5.55112 1.57902 5.36036 1.71967 5.21971C1.86032 5.07905 2.05109 5.00004 2.25 5.00004H8.25V2.74854C8.25 2.54962 8.32902 2.35886 8.46967 2.21821C8.61032 2.07755 8.80109 1.99854 9 1.99854H15C15.1989 1.99854 15.3897 2.07755 15.5303 2.21821C15.671 2.35886 15.75 2.54962 15.75 2.74854V5.00004H21.75C21.9489 5.00004 22.1397 5.07905 22.2803 5.21971C22.421 5.36036 22.5 5.55112 22.5 5.75004C22.5 5.94895 22.421 6.13971 22.2803 6.28036C22.1397 6.42102 21.9489 6.50004 21.75 6.50004H20.25V22.25C20.25 22.4489 20.171 22.6397 20.0303 22.7804C19.8897 22.921 19.6989 23 19.5 23H4.5C4.30109 23 4.11032 22.921 3.96967 22.7804C3.82902 22.6397 3.75 22.4489 3.75 22.25V6.50004ZM14.25 5.00004V3.50004H9.75V5.00004H14.25ZM5.25 21.5H18.75V6.50004H5.25V21.5ZM9.75 18.5C9.55109 18.5 9.36032 18.421 9.21967 18.2804C9.07902 18.1397 9 17.9489 9 17.75V10.25C9 10.0511 9.07902 9.86036 9.21967 9.71971C9.36032 9.57905 9.55109 9.50004 9.75 9.50004C9.94891 9.50004 10.1397 9.57905 10.2803 9.71971C10.421 9.86036 10.5 10.0511 10.5 10.25V17.75C10.5 17.9489 10.421 18.1397 10.2803 18.2804C10.1397 18.421 9.94891 18.5 9.75 18.5ZM14.25 18.5C14.0511 18.5 13.8603 18.421 13.7197 18.2804C13.579 18.1397 13.5 17.9489 13.5 17.75V10.25C13.5 10.0511 13.579 9.86036 13.7197 9.71971C13.8603 9.57905 14.0511 9.50004 14.25 9.50004C14.4489 9.50004 14.6397 9.57905 14.7803 9.71971C14.921 9.86036 15 10.0511 15 10.25V17.75C15 17.9489 14.921 18.1397 14.7803 18.2804C14.6397 18.421 14.4489 18.5 14.25 18.5Z" fill="#A83A3A"/>
</svg>
