<svg width="20" height="20" viewBox="0 0 20 20" fill="none" xmlns="http://www.w3.org/2000/svg">
<g clip-path="url(#clip0_54_1553)">
<path opacity="0.5" d="M10.82 18.7459L11.2675 17.99C11.6142 17.4042 11.7884 17.1109 12.0675 16.9484C12.3459 16.7867 12.6967 16.7809 13.3992 16.7684C14.435 16.7509 15.085 16.6875 15.6309 16.4617C16.642 16.0429 17.4454 15.2395 17.8642 14.2284C18.0192 13.8567 18.0975 13.4359 18.1375 12.8759C18.1584 12.58 18.1692 12.4317 18.09 12.3134C18.0109 12.1942 17.8609 12.1442 17.56 12.0434C16.3009 11.6209 13.3817 10.5467 11.75 9.16753C9.91085 7.61169 8.26502 4.45086 7.67585 3.23836C7.55919 2.99752 7.50085 2.87752 7.39752 2.81336C7.29502 2.75002 7.16419 2.75169 6.90419 2.75419C5.20835 2.77169 4.44085 2.86586 3.63752 3.35752C3.08229 3.69757 2.61541 4.16417 2.27502 4.71919C1.66669 5.71086 1.66669 7.06169 1.66669 9.76252V10.5875C1.66669 12.51 1.66669 13.4709 1.98085 14.2292C2.40006 15.2402 3.20372 16.0432 4.21502 16.4617C4.76002 16.6867 5.41002 16.7509 6.44669 16.7684C7.14835 16.7809 7.50002 16.7867 7.77835 16.9484C8.05752 17.1109 8.23085 17.4042 8.57835 17.99L9.02585 18.7459C9.42419 19.4192 10.4209 19.4192 10.82 18.7459Z" fill="#FAFAFA"/>
<path fill-rule="evenodd" clip-rule="evenodd" d="M12.3933 0.200001C12.4592 0.260315 12.5117 0.333775 12.5473 0.415635C12.583 0.497495 12.6011 0.585933 12.6005 0.675232C12.5999 0.764531 12.5805 0.852705 12.5437 0.934054C12.5069 1.0154 12.4534 1.08812 12.3867 1.1475L11.4683 1.9925C12.2675 2 13.0358 2.0175 13.73 2.06167C14.3258 2.09917 14.885 2.15667 15.3717 2.24667C15.8483 2.335 16.3075 2.46333 16.6717 2.66917C17.34 3.04179 17.9111 3.56685 18.3383 4.20167C18.7383 4.8025 18.9158 5.4825 19 6.30167C19.0833 7.10417 19.0833 8.10667 19.0833 9.3775V9.4125C19.0833 9.78333 18.7608 10.0833 18.3633 10.0833C17.965 10.0833 17.6425 9.78333 17.6425 9.4125C17.6425 8.09917 17.6425 7.16083 17.5667 6.43083C17.4917 5.71083 17.35 5.2625 17.1142 4.90833C16.8097 4.45614 16.4028 4.08212 15.9267 3.81667C15.7717 3.72917 15.5025 3.63833 15.09 3.5625C14.6075 3.48001 14.1205 3.42575 13.6317 3.4C12.9151 3.35923 12.1977 3.337 11.48 3.33333L12.3867 4.16667C12.67 4.4275 12.6725 4.85167 12.3933 5.11583C12.2546 5.243 12.0735 5.31403 11.8853 5.31511C11.6971 5.31619 11.5152 5.24724 11.375 5.12167L9.21417 3.13333C9.14735 3.07309 9.0938 2.9996 9.05693 2.91753C9.02006 2.83547 9.00067 2.74663 9 2.65667C9 2.4775 9.07667 2.30583 9.21417 2.17917L11.375 0.193334C11.5152 0.0677619 11.6971 -0.00118774 11.8853 -0.000109615C12.0735 0.000968504 12.2546 0.0719973 12.3933 0.199167V0.200001Z" fill="#FAFAFA"/>
</g>
<defs>
<clipPath id="clip0_54_1553">
<rect width="20" height="20" fill="white"/>
</clipPath>
</defs>
</svg>
