<svg width="64" height="65" viewBox="0 0 64 65" fill="none" xmlns="http://www.w3.org/2000/svg">
<path opacity="0.3" d="M64 32.5C64 50.1731 49.6731 64.5 32 64.5C14.3269 64.5 0 50.1731 0 32.5C0 14.8269 14.3269 0.5 32 0.5C49.6731 0.5 64 14.8269 64 32.5ZM8.72571 32.5C8.72571 45.354 19.146 55.7743 32 55.7743C44.854 55.7743 55.2743 45.354 55.2743 32.5C55.2743 19.646 44.854 9.22571 32 9.22571C19.146 9.22571 8.72571 19.646 8.72571 32.5Z" fill="#2F2E30"/>
<circle cx="32" cy="32.5" r="23.2" fill="#526458"/>
<path d="M22.5391 40.8993L22.5389 40.8991C21.8561 40.39 21.2247 39.5815 20.7636 38.6624C20.3024 37.7432 20.0333 36.7568 20.0333 35.9133V25.9933C20.0333 24.1474 21.4115 22.1485 23.1478 21.5018L23.1488 21.5015L29.8017 19.0083C29.8018 19.0083 29.8019 19.0082 29.8019 19.0082C30.3904 18.7883 31.1774 18.6699 31.9867 18.6699C32.7959 18.6699 33.5829 18.7883 34.1714 19.0082C34.1715 19.0082 34.1715 19.0083 34.1716 19.0083L40.8245 21.5015L40.8255 21.5018C42.5618 22.1485 43.94 24.1474 43.94 25.9933V35.8999C43.94 36.7504 43.6708 37.7367 43.2099 38.6537C42.7491 39.5707 42.1177 40.3763 41.4345 40.8857L41.4342 40.8859L35.7009 45.1659L35.7009 45.1659L35.6947 45.1706C34.6886 45.9464 33.3607 46.3466 32 46.3466C30.6407 46.3466 29.3085 45.947 28.2715 45.1786C28.2714 45.1785 28.2712 45.1783 28.2711 45.1782L22.5391 40.8993ZM30.1585 19.9515L30.1579 19.9517L23.5045 22.4451L23.5038 22.4453C22.8179 22.7035 22.21 23.2492 21.777 23.8756C21.3438 24.5024 21.0467 25.2664 21.0467 26.0066V35.9133C21.0467 36.6494 21.3014 37.4876 21.6713 38.2256C22.0411 38.9635 22.5583 39.6656 23.1408 40.1006L23.1409 40.1006L28.8739 44.3803C29.7442 45.0312 30.8857 45.3399 32.0017 45.3399C33.1177 45.3399 34.2616 45.0311 35.1378 44.3816L35.1391 44.3806L40.8724 40.1006L40.8733 40.0999C41.4614 39.6589 41.9785 38.9575 42.3472 38.2202C42.7159 37.4829 42.9667 36.6484 42.9667 35.9133V25.9933C42.9667 25.2588 42.6687 24.4979 42.2363 23.8723C41.8037 23.2464 41.1973 22.699 40.5143 22.4338L40.5143 22.4338L40.5088 22.4317L33.8555 19.9384L33.8555 19.9383L33.8464 19.9351C33.3216 19.7499 32.6468 19.6665 32.0003 19.6683C31.3546 19.67 30.6802 19.7568 30.1585 19.9515Z" fill="#FAFAFA" stroke="#FAFAFA"/>
<path d="M29.8597 33.4136L30.2133 33.7672L30.5668 33.4136L35.5935 28.387C35.7849 28.1956 36.1083 28.1956 36.2997 28.387C36.4911 28.5784 36.4911 28.9018 36.2997 29.0932L30.5664 34.8265C30.4651 34.9278 30.3412 34.9734 30.2133 34.9734C30.0854 34.9734 29.9615 34.9278 29.8602 34.8265L27.7135 32.6799C27.5221 32.4885 27.5221 32.165 27.7135 31.9736C27.9049 31.7822 28.2283 31.7822 28.4197 31.9736L29.8597 33.4136Z" fill="#FAFAFA" stroke="#FAFAFA"/>
</svg>
