<svg width="38" height="38" viewBox="0 0 38 38" fill="none" xmlns="http://www.w3.org/2000/svg">
<rect x="1" y="1" width="36" height="36" stroke="#526458" stroke-width="2"/>
<path d="M16 19C16 19.663 15.7366 20.2989 15.2678 20.7678C14.7989 21.2366 14.163 21.5 13.5 21.5C12.837 21.5 12.2011 21.2366 11.7322 20.7678C11.2634 20.2989 11 19.663 11 19C11 18.337 11.2634 17.7011 11.7322 17.2322C12.2011 16.7634 12.837 16.5 13.5 16.5C14.163 16.5 14.7989 16.7634 15.2678 17.2322C15.7366 17.7011 16 18.337 16 19Z" stroke="#526458" stroke-width="1.5"/>
<path d="M21 13.5L16 17M21 24.5L16 21" stroke="#526458" stroke-width="1.5" stroke-linecap="round"/>
<path d="M26 25.5C26 26.163 25.7366 26.7989 25.2678 27.2678C24.7989 27.7366 24.163 28 23.5 28C22.837 28 22.2011 27.7366 21.7322 27.2678C21.2634 26.7989 21 26.163 21 25.5C21 24.837 21.2634 24.2011 21.7322 23.7322C22.2011 23.2634 22.837 23 23.5 23C24.163 23 24.7989 23.2634 25.2678 23.7322C25.7366 24.2011 26 24.837 26 25.5ZM26 12.5C26 13.163 25.7366 13.7989 25.2678 14.2678C24.7989 14.7366 24.163 15 23.5 15C22.837 15 22.2011 14.7366 21.7322 14.2678C21.2634 13.7989 21 13.163 21 12.5C21 11.837 21.2634 11.2011 21.7322 10.7322C22.2011 10.2634 22.837 10 23.5 10C24.163 10 24.7989 10.2634 25.2678 10.7322C25.7366 11.2011 26 11.837 26 12.5Z" stroke="#526458" stroke-width="1.5"/>
</svg>
