<svg width="24" height="24" viewBox="0 0 24 24" fill="#FDFDFD" xmlns="http://www.w3.org/2000/svg">
<path d="M20.925 6.35997C17.79 1.49997 11.37 0.0599657 6.40505 3.07497C1.56005 6.08997 5.05447e-05 12.66 3.13505 17.505L3.39005 17.895L2.34005 21.825L6.27005 20.775L6.66005 21.03C8.35505 21.945 10.2001 22.47 12.0301 22.47C13.9951 22.47 15.96 21.945 17.6551 20.895C22.5 17.745 23.94 11.31 20.925 6.32997V6.35997ZM18.18 16.47C17.655 17.25 16.995 17.775 16.08 17.91C15.555 17.91 14.895 18.165 12.285 17.13C10.065 16.08 8.22005 14.37 6.91505 12.405C6.13505 11.49 5.73005 10.305 5.61005 9.11997C5.61005 8.06997 6.00005 7.15497 6.66005 6.49497C6.91505 6.23997 7.18505 6.10497 7.44005 6.10497H8.10005C8.35505 6.10497 8.62505 6.10497 8.76005 6.62997C9.01505 7.28997 9.67505 8.86497 9.67505 8.99997C9.81005 9.13497 9.75005 10.14 9.15005 10.71C8.82005 11.085 8.76005 11.1 8.89505 11.37C9.42005 12.15 10.0801 12.945 10.725 13.605C11.505 14.265 12.3001 14.79 13.2151 15.18C13.47 15.315 13.74 15.315 13.875 15.045C14.01 14.79 14.655 14.13 14.925 13.86C15.18 13.605 15.3151 13.605 15.585 13.725L17.685 14.775C17.9401 14.91 18.21 15.03 18.345 15.165C18.48 15.555 18.48 16.08 18.2101 16.47H18.18Z" />
</svg>
